# xmcd
#
# Track frame offsets:
#	150
#	15159
#	25736
#	37379
#	48304
#	60591
#	74560
#	87273
#	99247
#	115459
#	129525
#	143654
#	163490
#	181372
#	194504
#	209225
#	220737
#	233996
#	246001
#	258294
#
# Disc length: 3623 seconds
#
# Revision: 0
# Processed by: cddbd v1.5.2PL0 Copyright (c) Steve Scherf et al.
# Submitted via: dBpowerAMP V4.0
#
DISCID=2a0e2514
DTITLE=rudy hernandez - 40 años disc o1
DYEAR=1900
DGENRE=
TTITLE0=una bella historia
TTITLE1=marionetas en la cuerda
TTITLE2=mam samba
TTITLE3=fui
TTITLE4=barbacoa
TTITLE5=cambialo
TTITLE6=boneli bonela
TTITLE7=mira juan
TTITLE8=la realidad es cruel y triste
TTITLE9=soy como quieres tu
TTITLE10=no volvere
TTITLE11=llamarada
TTITLE12=cisne cuello negro
TTITLE13=cuando quieras dejame
TTITLE14=no quiero ser
TTITLE15=mis noches sin ti
TTITLE16=arrancame de ti
TTITLE17=hay un algo en la vida
TTITLE18=cuando creas
TTITLE19=noches de porla,mar
EXTD=
EXTT0=
EXTT1=
EXTT2=
EXTT3=
EXTT4=
EXTT5=
EXTT6=
EXTT7=
EXTT8=
EXTT9=
EXTT10=
EXTT11=
EXTT12=
EXTT13=
EXTT14=
EXTT15=
EXTT16=
EXTT17=
EXTT18=
EXTT19=
PLAYORDER=
